<?xml version="1.0" encoding="UTF-8" standalone="no"?><svg xmlns="http://www.w3.org/2000/svg" xmlns:xlink="http://www.w3.org/1999/xlink" contentScriptType="application/ecmascript" contentStyleType="text/css" height="455px" preserveAspectRatio="none" style="width:961px;height:455px;" version="1.1" viewBox="0 0 961 455" width="961px" zoomAndPan="magnify"><defs><filter height="300%" id="filb4gb30sjd2" width="300%" x="-1" y="-1"><feGaussianBlur result="blurOut" stdDeviation="2.0"/><feColorMatrix in="blurOut" result="blurOut2" type="matrix" values="0 0 0 0 0 0 0 0 0 0 0 0 0 0 0 0 0 0 .4 0"/><feOffset dx="4.0" dy="4.0" in="blurOut2" result="blurOut3"/><feBlend in="SourceGraphic" in2="blurOut3" mode="normal"/></filter></defs><g><text fill="#000000" font-family="sans-serif" font-size="18" lengthAdjust="spacingAndGlyphs" textLength="217" x="376" y="19.2419">APlay Target Architecture</text><!--MD5=[8fe53f18530bd0abf7a68db8ca61badb]
entity LinuxApp--><rect fill="#FEFECE" filter="url(#filb4gb30sjd2)" height="58.1358" style="stroke: #A80036; stroke-width: 1.5;" width="165" x="228" y="32.5158"/><rect fill="#FEFECE" height="5" style="stroke: #A80036; stroke-width: 1.5;" width="10" x="223" y="37.5158"/><rect fill="#FEFECE" height="5" style="stroke: #A80036; stroke-width: 1.5;" width="10" x="223" y="80.6517"/><text fill="#000000" font-family="sans-serif" font-size="14" lengthAdjust="spacingAndGlyphs" textLength="64" x="238" y="57.4818">app/linux</text><text fill="#000000" font-family="sans-serif" font-size="14" lengthAdjust="spacingAndGlyphs" textLength="145" x="238" y="76.5497">CLI / desktop lifecycle</text><!--MD5=[60a5627bc9ec6f594418aa32d9a9a7af]
entity AndroidApp--><rect fill="#FEFECE" filter="url(#filb4gb30sjd2)" height="58.1358" style="stroke: #A80036; stroke-width: 1.5;" width="187" x="6" y="32.5158"/><rect fill="#FEFECE" height="5" style="stroke: #A80036; stroke-width: 1.5;" width="10" x="1" y="37.5158"/><rect fill="#FEFECE" height="5" style="stroke: #A80036; stroke-width: 1.5;" width="10" x="1" y="80.6517"/><text fill="#000000" font-family="sans-serif" font-size="14" lengthAdjust="spacingAndGlyphs" textLength="84" x="16" y="57.4818">app/android</text><text fill="#000000" font-family="sans-serif" font-size="14" lengthAdjust="spacingAndGlyphs" textLength="167" x="16" y="76.5497">Activity / Service lifecycle</text><!--MD5=[e9133d319b00836ead36bafe5be9939b]
entity Protocol--><rect fill="#FEFECE" filter="url(#filb4gb30sjd2)" height="58.1358" style="stroke: #A80036; stroke-width: 1.5;" width="155" x="404" y="150.5158"/><rect fill="#FEFECE" height="5" style="stroke: #A80036; stroke-width: 1.5;" width="10" x="399" y="155.5158"/><rect fill="#FEFECE" height="5" style="stroke: #A80036; stroke-width: 1.5;" width="10" x="399" y="198.6517"/><text fill="#000000" font-family="sans-serif" font-size="14" lengthAdjust="spacingAndGlyphs" textLength="55" x="414" y="175.4818">protocol</text><text fill="#000000" font-family="sans-serif" font-size="14" lengthAdjust="spacingAndGlyphs" textLength="135" x="414" y="194.5497">RTSP / HTTP / mDNS</text><!--MD5=[22a2c79506424821a4e343bc77e5db0a]
entity Streaming--><rect fill="#FEFECE" filter="url(#filb4gb30sjd2)" height="58.1358" style="stroke: #A80036; stroke-width: 1.5;" width="208" x="193.5" y="268.5158"/><rect fill="#FEFECE" height="5" style="stroke: #A80036; stroke-width: 1.5;" width="10" x="188.5" y="273.5158"/><rect fill="#FEFECE" height="5" style="stroke: #A80036; stroke-width: 1.5;" width="10" x="188.5" y="316.6517"/><text fill="#000000" font-family="sans-serif" font-size="14" lengthAdjust="spacingAndGlyphs" textLength="69" x="203.5" y="293.4818">streaming</text><text fill="#000000" font-family="sans-serif" font-size="14" lengthAdjust="spacingAndGlyphs" textLength="188" x="203.5" y="312.5497">RAOP / mirror / HLS / timing</text><!--MD5=[db49e81f1cb80318d8bca3cc3b6197a9]
entity Crypto--><rect fill="#FEFECE" filter="url(#filb4gb30sjd2)" height="58.1358" style="stroke: #A80036; stroke-width: 1.5;" width="218" x="732.5" y="386.5158"/><rect fill="#FEFECE" height="5" style="stroke: #A80036; stroke-width: 1.5;" width="10" x="727.5" y="391.5158"/><rect fill="#FEFECE" height="5" style="stroke: #A80036; stroke-width: 1.5;" width="10" x="727.5" y="434.6517"/><text fill="#000000" font-family="sans-serif" font-size="14" lengthAdjust="spacingAndGlyphs" textLength="42" x="742.5" y="411.4818">crypto</text><text fill="#000000" font-family="sans-serif" font-size="14" lengthAdjust="spacingAndGlyphs" textLength="198" x="742.5" y="430.5497">AES / FairPlay / SRP / Ed25519</text><!--MD5=[a6f9e71a3fca7e0d323019ca73fa36ba]
entity Osal--><rect fill="#FEFECE" filter="url(#filb4gb30sjd2)" height="58.1358" style="stroke: #A80036; stroke-width: 1.5;" width="231" x="57" y="386.5158"/><rect fill="#FEFECE" height="5" style="stroke: #A80036; stroke-width: 1.5;" width="10" x="52" y="391.5158"/><rect fill="#FEFECE" height="5" style="stroke: #A80036; stroke-width: 1.5;" width="10" x="52" y="434.6517"/><text fill="#000000" font-family="sans-serif" font-size="14" lengthAdjust="spacingAndGlyphs" textLength="27" x="67" y="411.4818">osal</text><text fill="#000000" font-family="sans-serif" font-size="14" lengthAdjust="spacingAndGlyphs" textLength="174" x="67" y="430.5497">codec / render / bindings</text><!--MD5=[9b4fcc6fd6d92f993ae90f29f53a86c9]
entity Harness--><rect fill="#FEFECE" filter="url(#filb4gb30sjd2)" height="58.1358" style="stroke: #A80036; stroke-width: 1.5;" width="179" x="491" y="32.5158"/><rect fill="#FEFECE" height="5" style="stroke: #A80036; stroke-width: 1.5;" width="10" x="486" y="37.5158"/><rect fill="#FEFECE" height="5" style="stroke: #A80036; stroke-width: 1.5;" width="10" x="486" y="80.6517"/><text fill="#000000" font-family="sans-serif" font-size="14" lengthAdjust="spacingAndGlyphs" textLength="54" x="501" y="57.4818">harness</text><text fill="#000000" font-family="sans-serif" font-size="14" lengthAdjust="spacingAndGlyphs" textLength="159" x="501" y="76.5497">replay / vectors / smoke</text><path d="M666,157.0158 L666,175.5158 L559.06,179.5158 L666,183.5158 L666,202.4279 A0,0 0 0 0 666,202.4279 L823,202.4279 A0,0 0 0 0 823,202.4279 L823,167.0158 L813,157.0158 L666,157.0158 A0,0 0 0 0 666,157.0158 " fill="#FBFB77" filter="url(#filb4gb30sjd2)" style="stroke: #A80036; stroke-width: 1.0;"/><path d="M813,157.0158 L813,167.0158 L823,167.0158 L813,157.0158 " fill="#FBFB77" style="stroke: #A80036; stroke-width: 1.0;"/><text fill="#000000" font-family="sans-serif" font-size="13" lengthAdjust="spacingAndGlyphs" textLength="136" x="672" y="175.9129">BLE discovery is TODO.</text><text fill="#000000" font-family="sans-serif" font-size="13" lengthAdjust="spacingAndGlyphs" textLength="130" x="672" y="193.6189">mDNS/DNS-SD is first.</text><path d="M323.5,393.0158 L323.5,411.5158 L288.03,415.5158 L323.5,419.5158 L323.5,438.4279 A0,0 0 0 0 323.5,438.4279 L697.5,438.4279 A0,0 0 0 0 697.5,438.4279 L697.5,403.0158 L687.5,393.0158 L323.5,393.0158 A0,0 0 0 0 323.5,393.0158 " fill="#FBFB77" filter="url(#filb4gb30sjd2)" style="stroke: #A80036; stroke-width: 1.0;"/><path d="M687.5,393.0158 L687.5,403.0158 L697.5,403.0158 L687.5,393.0158 " fill="#FBFB77" style="stroke: #A80036; stroke-width: 1.0;"/><text fill="#000000" font-family="sans-serif" font-size="13" lengthAdjust="spacingAndGlyphs" textLength="241" x="329.5" y="411.9129">OSAL owns codec/render and native binding adapters.</text><text fill="#000000" font-family="sans-serif" font-size="13" lengthAdjust="spacingAndGlyphs" textLength="353" x="329.5" y="429.6189">UI and business lifecycle stay in app/linux and app/android.</text><!--MD5=[c0a31ed4f04f489adbe938a817e3228c]
link LinuxApp to Protocol--><path d="M351.89,90.5958 C377.22,107.7758 409.65,129.7758 435.73,147.4658 " fill="none" id="LinuxApp-&gt;Protocol" style="stroke: #A80036; stroke-width: 1.0;"/><polygon fill="#A80036" points="440.19,150.4958,434.993,142.1298,436.054,147.6862,430.4976,148.7473,440.19,150.4958" style="stroke: #A80036; stroke-width: 1.0;"/><!--MD5=[81a877babae9615cb2c9bbb5aba52c94]
link LinuxApp to Streaming--><path d="M308.93,90.7458 C306.53,134.0458 301.93,216.7158 299.36,263.0058 " fill="none" id="LinuxApp-&gt;Streaming" style="stroke: #A80036; stroke-width: 1.0;"/><polygon fill="#A80036" points="299.07,268.1858,303.5769,259.4287,299.3552,263.194,295.59,258.9723,299.07,268.1858" style="stroke: #A80036; stroke-width: 1.0;"/><!--MD5=[b26ef4557a67bb94ec1f0fa8ec5773c2]
link LinuxApp to Osal--><path d="M284.31,90.8258 C251.65,128.2158 197.45,197.6458 175.5,268.5158 C163.94,305.8358 165.21,351.1158 168.05,381.2658 " fill="none" id="LinuxApp-&gt;Osal" style="stroke: #A80036; stroke-width: 1.0;"/><polygon fill="#A80036" points="168.56,386.3358,171.6393,376.9807,168.0597,381.3609,163.6794,377.7813,168.56,386.3358" style="stroke: #A80036; stroke-width: 1.0;"/><!--MD5=[07cd7d959b9bfa2d67737933de517310]
link AndroidApp to Protocol--><path d="M191.97,90.5958 C255.01,109.7358 337.76,134.8658 398.64,153.3558 " fill="none" id="AndroidApp-&gt;Protocol" style="stroke: #A80036; stroke-width: 1.0;"/><polygon fill="#A80036" points="403.73,154.8958,396.2907,148.4416,398.948,153.4355,393.9541,156.0928,403.73,154.8958" style="stroke: #A80036; stroke-width: 1.0;"/><!--MD5=[9bb47b84ba99c8daf62921459a6cf51f]
link AndroidApp to Streaming--><path d="M123.38,90.7458 C160.32,134.3958 231.12,218.0658 270.09,264.1258 " fill="none" id="AndroidApp-&gt;Streaming" style="stroke: #A80036; stroke-width: 1.0;"/><polygon fill="#A80036" points="273.53,268.1858,270.7685,258.7321,270.2996,264.3695,264.6623,263.9006,273.53,268.1858" style="stroke: #A80036; stroke-width: 1.0;"/><!--MD5=[b1c670a3e6d564fbdcd1bb0580a6565d]
link AndroidApp to Osal--><path d="M95.79,90.8058 C90.4,140.1758 83.82,244.5758 111.5,326.5158 C118.3,346.6358 131.18,366.3258 143.36,381.9658 " fill="none" id="AndroidApp-&gt;Osal" style="stroke: #A80036; stroke-width: 1.0;"/><polygon fill="#A80036" points="146.77,386.2658,144.2967,376.7326,143.657,382.3532,138.0364,381.7134,146.77,386.2658" style="stroke: #A80036; stroke-width: 1.0;"/><!--MD5=[e5b9ebd857a141a1a6b7e8ff6d2171ef]
link Protocol to Crypto--><path d="M524.92,208.7458 C592.72,252.8058 723.23,337.6458 793.65,383.4158 " fill="none" id="Protocol-&gt;Crypto" style="stroke: #A80036; stroke-width: 1.0;"/><polygon fill="#A80036" points="798.2,386.3758,792.8122,378.1313,794.0006,383.662,788.47,384.8504,798.2,386.3758" style="stroke: #A80036; stroke-width: 1.0;"/><!--MD5=[b866e1c94ee1a1d01fdc7481d6126920]
link Protocol to Streaming--><path d="M436.96,208.5958 C409.6,225.8458 374.53,247.9558 346.4,265.6858 " fill="none" id="Protocol-&gt;Streaming" style="stroke: #A80036; stroke-width: 1.0;"/><polygon fill="#A80036" points="341.95,268.4958,351.6986,267.0942,346.1836,265.8356,347.4422,260.3205,341.95,268.4958" style="stroke: #A80036; stroke-width: 1.0;"/><!--MD5=[8286d34a3430f88389fbb45c6a53a438]
link Protocol to Osal--><path d="M476.62,208.5858 C469.54,241.1958 453.37,294.5958 419.5,326.5158 C398.52,346.2858 337.82,368.0458 281.85,384.9758 " fill="none" id="Protocol-&gt;Osal" style="stroke: #A80036; stroke-width: 1.0;"/><polygon fill="#A80036" points="276.8,386.4958,286.5715,387.7276,281.5872,385.0526,284.2623,380.0682,276.8,386.4958" style="stroke: #A80036; stroke-width: 1.0;"/><!--MD5=[9b9dffadbe9a643ee9ed05ffa0334cbc]
link Streaming to Crypto--><path d="M401.93,320.1658 C486.53,337.7858 608.77,363.4258 715.5,386.5158 C719.35,387.3458 723.27,388.1958 727.22,389.0658 " fill="none" id="Streaming-&gt;Crypto" style="stroke: #A80036; stroke-width: 1.0;"/><polygon fill="#A80036" points="732.24,390.1558,724.2895,384.343,727.3531,389.0984,722.5976,392.1621,732.24,390.1558" style="stroke: #A80036; stroke-width: 1.0;"/><!--MD5=[9a2aa6d78a6f0efa731f617805b2c4f0]
link Streaming to Osal--><path d="M267.24,326.5958 C248.95,343.5658 225.59,365.2458 206.64,382.8358 " fill="none" id="Streaming-&gt;Osal" style="stroke: #A80036; stroke-width: 1.0;"/><polygon fill="#A80036" points="202.91,386.2958,212.2312,383.1155,206.5785,382.8985,206.7955,377.2458,202.91,386.2958" style="stroke: #A80036; stroke-width: 1.0;"/><!--MD5=[7fb5e2786353631606557ab35d221f35]
link Harness to Protocol--><path d="M556.53,90.5958 C542.17,107.4258 523.86,128.8858 508.92,146.3958 " fill="none" id="Harness-&gt;Protocol" style="stroke: #A80036; stroke-width: 1.0;"/><polygon fill="#A80036" points="505.59,150.2958,514.4749,146.0464,508.8357,146.4925,508.3896,140.8533,505.59,150.2958" style="stroke: #A80036; stroke-width: 1.0;"/><!--MD5=[aa37f64a507b47d2a1c9ed77764fe069]
link Harness to Streaming--><path d="M490.94,90.1958 C455.61,104.2458 416.41,124.0358 386.5,150.5158 C350.91,182.0258 325.02,231.2358 310.62,263.6758 " fill="none" id="Harness-&gt;Streaming" style="stroke: #A80036; stroke-width: 1.0;"/><polygon fill="#A80036" points="308.58,268.3358,315.8444,261.6854,310.5788,263.7528,308.5115,258.4872,308.58,268.3358" style="stroke: #A80036; stroke-width: 1.0;"/><!--MD5=[20be86cef537b7fa0991fe9f91743c93]
link Harness to Crypto--><path d="M670.16,67.2658 C728.99,75.5958 801.93,96.9558 840.5,150.5158 C890.19,219.5158 868.39,327.1458 852.61,381.1858 " fill="none" id="Harness-&gt;Crypto" style="stroke: #A80036; stroke-width: 1.0;"/><polygon fill="#A80036" points="851.11,386.2458,857.5172,378.766,852.5402,381.4548,849.8514,376.4777,851.11,386.2458" style="stroke: #A80036; stroke-width: 1.0;"/><!--MD5=[34c668cf54deb0c3e2eeddda6d1d29bf]
link Harness to Osal--><path d="M585.53,90.6658 C589.66,121.0158 592.52,170.1458 576.5,208.5158 C548.52,275.5258 525.39,288.5358 463.5,326.5158 C433.96,344.6458 358.14,367.3258 291.31,385.1258 " fill="none" id="Harness-&gt;Osal" style="stroke: #A80036; stroke-width: 1.0;"/><polygon fill="#A80036" points="286.1,386.5058,295.8219,388.0823,290.9352,385.2327,293.7848,380.346,286.1,386.5058" style="stroke: #A80036; stroke-width: 1.0;"/><!--MD5=[cc5dfd2a38ae4dced9e65e5340bf0893]
@startuml
title APlay Target Architecture

skinparam componentStyle rectangle

component "app/linux\nCLI / desktop lifecycle" as LinuxApp
component "app/android\nActivity / Service lifecycle" as AndroidApp
component "protocol\nRTSP / HTTP / mDNS" as Protocol
component "streaming\nRAOP / mirror / HLS / timing" as Streaming
component "crypto\nAES / FairPlay / SRP / Ed25519" as Crypto
component "osal\ncodec / render / bindings" as Osal
component "harness\nreplay / vectors / smoke" as Harness

LinuxApp - -> Protocol
LinuxApp - -> Streaming
LinuxApp - -> Osal
AndroidApp - -> Protocol
AndroidApp - -> Streaming
AndroidApp - -> Osal
Protocol - -> Crypto
Protocol - -> Streaming
Protocol - -> Osal
Streaming - -> Crypto
Streaming - -> Osal
Harness - -> Protocol
Harness - -> Streaming
Harness - -> Crypto
Harness - -> Osal

note right of Protocol
BLE discovery is TODO.
mDNS/DNS-SD is first.
end note

note right of Osal
OSAL owns codec/render and native binding adapters.
UI and business lifecycle stay in app/linux and app/android.
end note

@enduml

PlantUML version 1.2020.02(Sun Mar 01 18:22:07 CST 2020)
(GPL source distribution)
Java Runtime: OpenJDK Runtime Environment
JVM: OpenJDK 64-Bit Server VM
Java Version: 21.0.11+10-1-deb13u2-Debian
Operating System: Linux
Default Encoding: UTF-8
Language: en
Country: null
--></g></svg>
