<?xml version="1.0" encoding="UTF-8" standalone="no"?><svg xmlns="http://www.w3.org/2000/svg" xmlns:xlink="http://www.w3.org/1999/xlink" contentScriptType="application/ecmascript" contentStyleType="text/css" height="292px" preserveAspectRatio="none" style="width:1123px;height:292px;" version="1.1" viewBox="0 0 1123 292" width="1123px" zoomAndPan="magnify"><defs><filter height="300%" id="f1te4jr3lrut9n" width="300%" x="-1" y="-1"><feGaussianBlur result="blurOut" stdDeviation="2.0"/><feColorMatrix in="blurOut" result="blurOut2" type="matrix" values="0 0 0 0 0 0 0 0 0 0 0 0 0 0 0 0 0 0 .4 0"/><feOffset dx="4.0" dy="4.0" in="blurOut2" result="blurOut3"/><feBlend in="SourceGraphic" in2="blurOut3" mode="normal"/></filter></defs><g><text fill="#000000" font-family="sans-serif" font-size="18" lengthAdjust="spacingAndGlyphs" textLength="141" x="494.5" y="19.2419">Media Data Flow</text><!--MD5=[0ba5ee7700168656dc1b457c6fe9fdac]
entity Client--><rect fill="#FEFECE" filter="url(#f1te4jr3lrut9n)" height="39.0679" style="stroke: #000000; stroke-width: 1.5;" width="59" x="6" y="128.5158"/><text fill="#000000" font-family="sans-serif" font-size="14" lengthAdjust="spacingAndGlyphs" textLength="39" x="16" y="153.4818">Client</text><!--MD5=[c31344101066c7cec356c83fbca1228f]
entity Control--><rect fill="#FEFECE" filter="url(#f1te4jr3lrut9n)" height="58.1358" style="stroke: #000000; stroke-width: 1.5;" width="92" x="125" y="78.0158"/><text fill="#000000" font-family="sans-serif" font-size="14" lengthAdjust="spacingAndGlyphs" textLength="72" x="135" y="102.9818">RTSP/HTTP</text><text fill="#000000" font-family="sans-serif" font-size="14" lengthAdjust="spacingAndGlyphs" textLength="47" x="135" y="122.0497">control</text><!--MD5=[87337cbb14885a23607a61d3cbf7f135]
entity Keys--><rect fill="#FEFECE" filter="url(#f1te4jr3lrut9n)" height="58.1358" style="stroke: #000000; stroke-width: 1.5;" width="125" x="277" y="78.0158"/><text fill="#000000" font-family="sans-serif" font-size="14" lengthAdjust="spacingAndGlyphs" textLength="105" x="287" y="102.9818">Pairing/FairPlay</text><text fill="#000000" font-family="sans-serif" font-size="14" lengthAdjust="spacingAndGlyphs" textLength="29" x="287" y="122.0497">keys</text><!--MD5=[9bf38e2b6fa784581ad2b7a500786e52]
entity Audio--><rect fill="#FEFECE" filter="url(#f1te4jr3lrut9n)" height="39.0679" style="stroke: #000000; stroke-width: 1.5;" width="88" x="470" y="87.5158"/><text fill="#000000" font-family="sans-serif" font-size="14" lengthAdjust="spacingAndGlyphs" textLength="68" x="480" y="112.4818">Audio RTP</text><!--MD5=[962dd4466b8b9fecb56b4ca25d27e02b]
entity Video--><rect fill="#FEFECE" filter="url(#f1te4jr3lrut9n)" height="39.0679" style="stroke: #000000; stroke-width: 1.5;" width="104" x="462" y="163.5158"/><text fill="#000000" font-family="sans-serif" font-size="14" lengthAdjust="spacingAndGlyphs" textLength="84" x="472" y="188.4818">Mirror Video</text><!--MD5=[b2b61acb382a4ec904e15c6493fd2db9]
entity Timing--><rect fill="#FEFECE" filter="url(#f1te4jr3lrut9n)" height="39.0679" style="stroke: #000000; stroke-width: 1.5;" width="98" x="290.5" y="242.5158"/><text fill="#000000" font-family="sans-serif" font-size="14" lengthAdjust="spacingAndGlyphs" textLength="78" x="300.5" y="267.4818">NTP Timing</text><!--MD5=[ff74cdb9d7cee1f338d42fda4bfd5a89]
entity Buffer--><rect fill="#FEFECE" filter="url(#f1te4jr3lrut9n)" height="39.0679" style="stroke: #000000; stroke-width: 1.5;" width="98" x="626" y="163.5158"/><text fill="#000000" font-family="sans-serif" font-size="14" lengthAdjust="spacingAndGlyphs" textLength="78" x="636" y="188.4818">Jitter Buffer</text><!--MD5=[562116a30353bbb4e71ded9998d6f8ef]
entity Frames--><rect fill="#FEFECE" filter="url(#f1te4jr3lrut9n)" height="39.0679" style="stroke: #000000; stroke-width: 1.5;" width="114" x="784" y="163.5158"/><text fill="#000000" font-family="sans-serif" font-size="14" lengthAdjust="spacingAndGlyphs" textLength="94" x="794" y="188.4818">Frame Output</text><!--MD5=[7c73cbbe27a4ee8f8110ff3aaade307d]
entity RenderCodec--><rect fill="#FEFECE" filter="url(#f1te4jr3lrut9n)" height="58.1358" style="stroke: #000000; stroke-width: 1.5;" width="154" x="958" y="154.0158"/><text fill="#000000" font-family="sans-serif" font-size="14" lengthAdjust="spacingAndGlyphs" textLength="134" x="968" y="178.9818">OSAL Render/Codec</text><text fill="#000000" font-family="sans-serif" font-size="14" lengthAdjust="spacingAndGlyphs" textLength="111" x="968" y="198.0497">or harness mock</text><!--MD5=[76f6e35139e9280c1d9a9751f6333ae4]
link Client to Control--><path d="M65.14,139.2158 C81.04,134.3358 101.27,128.1258 119.71,122.4558 " fill="none" id="Client-&gt;Control" style="stroke: #A80036; stroke-width: 1.0;"/><polygon fill="#A80036" points="124.86,120.8758,115.0809,119.7057,120.082,122.3493,117.4384,127.3504,124.86,120.8758" style="stroke: #A80036; stroke-width: 1.0;"/><!--MD5=[f7c972519e35e683e4a9c12f094c9cc5]
link Control to Keys--><path d="M217.06,107.0158 C233.87,107.0158 253.34,107.0158 271.7,107.0158 " fill="none" id="Control-&gt;Keys" style="stroke: #A80036; stroke-width: 1.0;"/><polygon fill="#A80036" points="276.84,107.0158,267.84,103.0158,271.84,107.0158,267.84,111.0158,276.84,107.0158" style="stroke: #A80036; stroke-width: 1.0;"/><!--MD5=[e1bcb3ae7c2a6252088bc3b4f6c0491c]
link Keys to Audio--><path d="M402.29,107.0158 C422.7,107.0158 445.11,107.0158 464.39,107.0158 " fill="none" id="Keys-&gt;Audio" style="stroke: #A80036; stroke-width: 1.0;"/><polygon fill="#A80036" points="469.74,107.0158,460.74,103.0158,464.74,107.0158,460.74,111.0158,469.74,107.0158" style="stroke: #A80036; stroke-width: 1.0;"/><!--MD5=[a109c819ded67efd4a232194ee9cb6ab]
link Keys to Video--><path d="M402.29,134.2358 C422.52,143.1558 444.71,152.9258 463.87,161.3758 " fill="none" id="Keys-&gt;Video" style="stroke: #A80036; stroke-width: 1.0;"/><polygon fill="#A80036" points="468.68,163.4858,462.0569,156.1965,464.1045,161.4698,458.8312,163.5173,468.68,163.4858" style="stroke: #A80036; stroke-width: 1.0;"/><!--MD5=[aebef3682e24461f2dc5d49f46ea75ce]
link Client to Audio--><path d="M49.02,128.5058 C64.08,107.0558 91.55,73.8158 125,60.0158 C238.81,13.0658 281.35,35.5258 402,60.0158 C426.41,64.9658 452.11,75.4758 472.62,85.2958 " fill="none" id="Client-&gt;Audio" style="stroke: #A80036; stroke-width: 1.0;"/><polygon fill="#A80036" points="477.19,87.5158,470.8227,80.002,472.6869,85.3429,467.346,87.2071,477.19,87.5158" style="stroke: #A80036; stroke-width: 1.0;"/><!--MD5=[09d8d36dfd1f827ccf6b556e4512e9f5]
link Client to Video--><path d="M65.23,150.1258 C142.3,155.7858 354.66,171.3858 456.75,178.8858 " fill="none" id="Client-&gt;Video" style="stroke: #A80036; stroke-width: 1.0;"/><polygon fill="#A80036" points="461.83,179.2558,453.152,174.5983,456.8438,178.8844,452.5577,182.5762,461.83,179.2558" style="stroke: #A80036; stroke-width: 1.0;"/><!--MD5=[bcc27dad5ba344e7888b70e07c6040a8]
link Client to Timing--><path d="M56.98,167.6558 C73.92,182.8158 99.28,203.1458 125,215.0158 C176.6,238.8258 240.87,250.8658 285.35,256.7558 " fill="none" id="Client-&gt;Timing" style="stroke: #A80036; stroke-width: 1.0;"/><polygon fill="#A80036" points="290.4,257.4058,281.9747,252.3055,285.4397,256.7769,280.9683,260.2419,290.4,257.4058" style="stroke: #A80036; stroke-width: 1.0;"/><!--MD5=[8737d3a41fee8afc7de4f2a7182f52ff]
link Timing to Buffer--><path d="M388.9,255.0958 C434.87,248.0358 505.73,235.8658 566,220.0158 C584.13,215.2458 603.61,208.9558 620.97,202.9058 " fill="none" id="Timing-&gt;Buffer" style="stroke: #A80036; stroke-width: 1.0;"/><polygon fill="#A80036" points="625.81,201.2058,615.9928,200.4168,621.0929,202.864,618.6458,207.9641,625.81,201.2058" style="stroke: #A80036; stroke-width: 1.0;"/><!--MD5=[a57eea10aa6b301c238b14bfdf374bd5]
link Audio to Buffer--><path d="M555.95,126.5858 C578.2,137.2258 605.78,150.4058 628.68,161.3558 " fill="none" id="Audio-&gt;Buffer" style="stroke: #A80036; stroke-width: 1.0;"/><polygon fill="#A80036" points="633.19,163.5058,626.7941,156.0164,628.6786,161.3501,623.3449,163.2346,633.19,163.5058" style="stroke: #A80036; stroke-width: 1.0;"/><!--MD5=[0fc4fe524c427fbe9c6df99c485c9b13]
link Video to Buffer--><path d="M566.18,183.0158 C583.54,183.0158 602.97,183.0158 620.51,183.0158 " fill="none" id="Video-&gt;Buffer" style="stroke: #A80036; stroke-width: 1.0;"/><polygon fill="#A80036" points="625.89,183.0158,616.89,179.0158,620.89,183.0158,616.89,187.0158,625.89,183.0158" style="stroke: #A80036; stroke-width: 1.0;"/><!--MD5=[ca640644b4ce7ca3a6c72183ab63ade1]
link Buffer to Frames--><path d="M724.32,183.0158 C741.42,183.0158 760.88,183.0158 778.91,183.0158 " fill="none" id="Buffer-&gt;Frames" style="stroke: #A80036; stroke-width: 1.0;"/><polygon fill="#A80036" points="783.95,183.0158,774.95,179.0158,778.95,183.0158,774.95,187.0158,783.95,183.0158" style="stroke: #A80036; stroke-width: 1.0;"/><!--MD5=[b679e5d5e103928dd176ae2dc20d906c]
link Frames to RenderCodec--><path d="M898.05,183.0158 C915.15,183.0158 934.31,183.0158 952.72,183.0158 " fill="none" id="Frames-&gt;RenderCodec" style="stroke: #A80036; stroke-width: 1.0;"/><polygon fill="#A80036" points="957.89,183.0158,948.89,179.0158,952.89,183.0158,948.89,187.0158,957.89,183.0158" style="stroke: #A80036; stroke-width: 1.0;"/><!--MD5=[508e5ab87266e77b11c3ab8788713862]
@startuml
title Media Data Flow

left to right direction

rectangle "Client" as Client
rectangle "RTSP/HTTP\ncontrol" as Control
rectangle "Pairing/FairPlay\nkeys" as Keys
rectangle "Audio RTP" as Audio
rectangle "Mirror Video" as Video
rectangle "NTP Timing" as Timing
rectangle "Jitter Buffer" as Buffer
rectangle "Frame Output" as Frames
rectangle "OSAL Render/Codec\nor harness mock" as RenderCodec

Client - -> Control
Control - -> Keys
Keys - -> Audio
Keys - -> Video
Client - -> Audio
Client - -> Video
Client - -> Timing
Timing - -> Buffer
Audio - -> Buffer
Video - -> Buffer
Buffer - -> Frames
Frames - -> RenderCodec

@enduml

PlantUML version 1.2020.02(Sun Mar 01 18:22:07 CST 2020)
(GPL source distribution)
Java Runtime: OpenJDK Runtime Environment
JVM: OpenJDK 64-Bit Server VM
Java Version: 21.0.11+10-1-deb13u2-Debian
Operating System: Linux
Default Encoding: UTF-8
Language: en
Country: null
--></g></svg>