<?xml version="1.0" encoding="UTF-8" standalone="no"?><svg xmlns="http://www.w3.org/2000/svg" xmlns:xlink="http://www.w3.org/1999/xlink" contentScriptType="application/ecmascript" contentStyleType="text/css" height="1042px" preserveAspectRatio="none" style="width:490px;height:1042px;" version="1.1" viewBox="0 0 490 1042" width="490px" zoomAndPan="magnify"><defs><filter height="300%" id="fkxy4pp1s7wfp" width="300%" x="-1" y="-1"><feGaussianBlur result="blurOut" stdDeviation="2.0"/><feColorMatrix in="blurOut" result="blurOut2" type="matrix" values="0 0 0 0 0 0 0 0 0 0 0 0 0 0 0 0 0 0 .4 0"/><feOffset dx="4.0" dy="4.0" in="blurOut2" result="blurOut3"/><feBlend in="SourceGraphic" in2="blurOut3" mode="normal"/></filter></defs><g><text fill="#000000" font-family="sans-serif" font-size="18" lengthAdjust="spacingAndGlyphs" textLength="191" x="153" y="19.2419">Session State Machine</text><ellipse cx="387.14" cy="42.5158" fill="#000000" filter="url(#fkxy4pp1s7wfp)" rx="10" ry="10" style="stroke: none; stroke-width: 1.0;"/><rect fill="#FEFECE" filter="url(#fkxy4pp1s7wfp)" height="50" rx="12.5" ry="12.5" style="stroke: #A80036; stroke-width: 1.5;" width="50" x="362.14" y="113.5158"/><line style="stroke: #A80036; stroke-width: 1.5;" x1="362.14" x2="412.14" y1="142.5838" y2="142.5838"/><text fill="#000000" font-family="sans-serif" font-size="14" lengthAdjust="spacingAndGlyphs" textLength="26" x="374.14" y="133.4818">Idle</text><rect fill="#FEFECE" filter="url(#fkxy4pp1s7wfp)" height="50" rx="12.5" ry="12.5" style="stroke: #A80036; stroke-width: 1.5;" width="68" x="353.14" y="242.5158"/><line style="stroke: #A80036; stroke-width: 1.5;" x1="353.14" x2="421.14" y1="271.5838" y2="271.5838"/><text fill="#000000" font-family="sans-serif" font-size="14" lengthAdjust="spacingAndGlyphs" textLength="48" x="363.14" y="262.4818">Pairing</text><rect fill="#FEFECE" filter="url(#fkxy4pp1s7wfp)" height="50" rx="12.5" ry="12.5" style="stroke: #A80036; stroke-width: 1.5;" width="72" x="290.14" y="371.5158"/><line style="stroke: #A80036; stroke-width: 1.5;" x1="290.14" x2="362.14" y1="400.5838" y2="400.5838"/><text fill="#000000" font-family="sans-serif" font-size="14" lengthAdjust="spacingAndGlyphs" textLength="52" x="300.14" y="391.4818">Verified</text><rect fill="#FEFECE" filter="url(#fkxy4pp1s7wfp)" height="50" rx="12.5" ry="12.5" style="stroke: #A80036; stroke-width: 1.5;" width="54" x="421.14" y="451.5158"/><line style="stroke: #A80036; stroke-width: 1.5;" x1="421.14" x2="475.14" y1="480.5838" y2="480.5838"/><text fill="#000000" font-family="sans-serif" font-size="14" lengthAdjust="spacingAndGlyphs" textLength="34" x="431.14" y="471.4818">Error</text><rect fill="#FEFECE" filter="url(#fkxy4pp1s7wfp)" height="50" rx="12.5" ry="12.5" style="stroke: #A80036; stroke-width: 1.5;" width="96" x="274.14" y="531.5158"/><line style="stroke: #A80036; stroke-width: 1.5;" x1="274.14" x2="370.14" y1="560.5838" y2="560.5838"/><text fill="#000000" font-family="sans-serif" font-size="14" lengthAdjust="spacingAndGlyphs" textLength="76" x="284.14" y="551.4818">Configured</text><rect fill="#FEFECE" filter="url(#fkxy4pp1s7wfp)" height="50" rx="12.5" ry="12.5" style="stroke: #A80036; stroke-width: 1.5;" width="90" x="78.14" y="660.5158"/><line style="stroke: #A80036; stroke-width: 1.5;" x1="78.14" x2="168.14" y1="689.5838" y2="689.5838"/><text fill="#000000" font-family="sans-serif" font-size="14" lengthAdjust="spacingAndGlyphs" textLength="70" x="88.14" y="680.4818">Streaming</text><rect fill="#FEFECE" filter="url(#fkxy4pp1s7wfp)" height="50" rx="12.5" ry="12.5" style="stroke: #A80036; stroke-width: 1.5;" width="78" x="16.14" y="789.5158"/><line style="stroke: #A80036; stroke-width: 1.5;" x1="16.14" x2="94.14" y1="818.5838" y2="818.5838"/><text fill="#000000" font-family="sans-serif" font-size="14" lengthAdjust="spacingAndGlyphs" textLength="58" x="26.14" y="809.4818">Flushing</text><rect fill="#FEFECE" filter="url(#fkxy4pp1s7wfp)" height="50" rx="12.5" ry="12.5" style="stroke: #A80036; stroke-width: 1.5;" width="110" x="267.14" y="789.5158"/><line style="stroke: #A80036; stroke-width: 1.5;" x1="267.14" x2="377.14" y1="818.5838" y2="818.5838"/><text fill="#000000" font-family="sans-serif" font-size="14" lengthAdjust="spacingAndGlyphs" textLength="90" x="277.14" y="809.4818">TearingDown</text><rect fill="#FEFECE" filter="url(#fkxy4pp1s7wfp)" height="50" rx="12.5" ry="12.5" style="stroke: #A80036; stroke-width: 1.5;" width="65" x="373.64" y="900.5158"/><line style="stroke: #A80036; stroke-width: 1.5;" x1="373.64" x2="438.64" y1="929.5838" y2="929.5838"/><text fill="#000000" font-family="sans-serif" font-size="14" lengthAdjust="spacingAndGlyphs" textLength="45" x="383.64" y="920.4818">Closed</text><ellipse cx="406.14" cy="1021.5158" fill="none" filter="url(#fkxy4pp1s7wfp)" rx="10" ry="10" style="stroke: #000000; stroke-width: 1.0;"/><ellipse cx="406.64" cy="1022.0158" fill="#000000" rx="6" ry="6" style="stroke: none; stroke-width: 1.0;"/><!--MD5=[38f1f8b7f214ff6bc6d4b705f682283d]
link *start to Idle--><path d="M387.14,52.5258 C387.14,65.2158 387.14,88.9258 387.14,108.0858 " fill="none" id="*start-&gt;Idle" style="stroke: #A80036; stroke-width: 1.0;"/><polygon fill="#A80036" points="387.14,113.3558,391.14,104.3558,387.14,108.3558,383.14,104.3558,387.14,113.3558" style="stroke: #A80036; stroke-width: 1.0;"/><!--MD5=[5483be6b0d5deb401bc62a9fce5b2acc]
link Idle to Pairing--><path d="M387.14,163.7058 C387.14,184.6258 387.14,214.9258 387.14,237.2258 " fill="none" id="Idle-&gt;Pairing" style="stroke: #A80036; stroke-width: 1.0;"/><polygon fill="#A80036" points="387.14,242.4158,391.14,233.4158,387.14,237.4158,383.14,233.4158,387.14,242.4158" style="stroke: #A80036; stroke-width: 1.0;"/><text fill="#000000" font-family="sans-serif" font-size="13" lengthAdjust="spacingAndGlyphs" textLength="61" x="388.14" y="208.4129">pair-setup</text><!--MD5=[c234379bbb0219b67fcae5cb63cc31aa]
link Pairing to Verified--><path d="M353.05,289.5058 C342.03,298.2258 331.12,309.3958 325.14,322.5158 C318.97,336.0758 318.68,352.5758 320.17,366.4558 " fill="none" id="Pairing-&gt;Verified" style="stroke: #A80036; stroke-width: 1.0;"/><polygon fill="#A80036" points="320.79,371.4458,323.6561,362.0233,320.1768,366.4836,315.7165,363.0043,320.79,371.4458" style="stroke: #A80036; stroke-width: 1.0;"/><text fill="#000000" font-family="sans-serif" font-size="13" lengthAdjust="spacingAndGlyphs" textLength="78" x="326.14" y="337.4129">pair-verify ok</text><!--MD5=[d587e6c56e255dcb74d4af59e243d5b5]
link Pairing to Error--><path d="M397.83,292.7158 C401.68,301.9358 405.88,312.6158 409.14,322.5158 C423.09,364.8458 435.05,415.1258 441.93,446.1758 " fill="none" id="Pairing-&gt;Error" style="stroke: #A80036; stroke-width: 1.0;"/><polygon fill="#A80036" points="443.07,451.3758,445.0434,441.7267,441.996,446.4926,437.2301,443.4452,443.07,451.3758" style="stroke: #A80036; stroke-width: 1.0;"/><text fill="#000000" font-family="sans-serif" font-size="13" lengthAdjust="spacingAndGlyphs" textLength="63" x="415.14" y="337.4129">auth failed</text><!--MD5=[0925fbffb8568b4c282e2dcecd89e07b]
link Verified to Configured--><path d="M325.53,421.8558 C324.82,450.0058 323.64,496.3158 322.88,526.3658 " fill="none" id="Verified-&gt;Configured" style="stroke: #A80036; stroke-width: 1.0;"/><polygon fill="#A80036" points="322.76,531.4058,326.99,522.5116,322.8885,526.4075,318.9927,522.306,322.76,531.4058" style="stroke: #A80036; stroke-width: 1.0;"/><text fill="#000000" font-family="sans-serif" font-size="13" lengthAdjust="spacingAndGlyphs" textLength="57" x="326.14" y="481.9129">SETUP ok</text><!--MD5=[2d422ff9d0ccd05b36f2db09612b04ab]
link Configured to Streaming--><path d="M274.14,574.3458 C250.82,583.5958 222.99,596.2958 200.14,611.5158 C181.07,624.2258 162.34,641.8358 148.13,656.5658 " fill="none" id="Configured-&gt;Streaming" style="stroke: #A80036; stroke-width: 1.0;"/><polygon fill="#A80036" points="144.62,660.2458,153.7238,656.4881,148.0686,656.6255,147.9313,650.9703,144.62,660.2458" style="stroke: #A80036; stroke-width: 1.0;"/><text fill="#000000" font-family="sans-serif" font-size="13" lengthAdjust="spacingAndGlyphs" textLength="94" x="201.14" y="626.4129">RECORD or play</text><!--MD5=[e0d1c6c1c87cc23fbb3a3f29ce10fb36]
link Streaming to Flushing--><path d="M78.06,695.7658 C53.46,703.3658 25.05,716.8858 10.14,740.5158 C0.78,755.3658 9.59,772.0258 21.82,785.6758 " fill="none" id="Streaming-&gt;Flushing" style="stroke: #A80036; stroke-width: 1.0;"/><polygon fill="#A80036" points="25.35,789.4358,22.1321,780.1275,21.9379,785.781,16.2844,785.5869,25.35,789.4358" style="stroke: #A80036; stroke-width: 1.0;"/><text fill="#000000" font-family="sans-serif" font-size="13" lengthAdjust="spacingAndGlyphs" textLength="41" x="11.14" y="755.4129">FLUSH</text><!--MD5=[e31a9bca5f413899fffb3b50e241b183]
link Flushing to Streaming--><path d="M67.48,789.4258 C74.83,775.1558 84.41,756.7458 93.14,740.5158 C97.6,732.2258 102.53,723.2758 107.08,715.0958 " fill="none" id="Flushing-&gt;Streaming" style="stroke: #A80036; stroke-width: 1.0;"/><polygon fill="#A80036" points="109.56,710.6358,101.6778,716.5411,107.1209,715.0006,108.6614,720.4436,109.56,710.6358" style="stroke: #A80036; stroke-width: 1.0;"/><text fill="#000000" font-family="sans-serif" font-size="13" lengthAdjust="spacingAndGlyphs" textLength="88" x="94.14" y="755.4129">flush complete</text><!--MD5=[7f8a1ea60c1bbae4156220d370fba107]
link Streaming to TearingDown--><path d="M153.93,710.6158 C173.34,725.3958 199.18,744.3258 223.14,759.5158 C238.13,769.0158 254.91,778.5558 270.34,786.9158 " fill="none" id="Streaming-&gt;TearingDown" style="stroke: #A80036; stroke-width: 1.0;"/><polygon fill="#A80036" points="275.08,789.4758,269.0552,781.6847,270.6786,787.1036,265.2596,788.727,275.08,789.4758" style="stroke: #A80036; stroke-width: 1.0;"/><text fill="#000000" font-family="sans-serif" font-size="13" lengthAdjust="spacingAndGlyphs" textLength="71" x="224.14" y="755.4129">TEARDOWN</text><!--MD5=[380888d0eb03a3e1e0ac0456c2f85e31]
link Configured to TearingDown--><path d="M322.14,581.5958 C322.14,628.7758 322.14,733.1758 322.14,784.2458 " fill="none" id="Configured-&gt;TearingDown" style="stroke: #A80036; stroke-width: 1.0;"/><polygon fill="#A80036" points="322.14,789.3058,326.14,780.3058,322.14,784.3058,318.14,780.3058,322.14,789.3058" style="stroke: #A80036; stroke-width: 1.0;"/><text fill="#000000" font-family="sans-serif" font-size="13" lengthAdjust="spacingAndGlyphs" textLength="71" x="323.14" y="690.9129">TEARDOWN</text><!--MD5=[1f09a75d741aeace105d36194448e9a3]
link TearingDown to Closed--><path d="M340.79,839.7058 C353.62,856.3558 370.72,878.5458 384.21,896.0458 " fill="none" id="TearingDown-&gt;Closed" style="stroke: #A80036; stroke-width: 1.0;"/><polygon fill="#A80036" points="387.55,900.3958,385.2348,890.823,384.5021,896.4322,378.8929,895.6996,387.55,900.3958" style="stroke: #A80036; stroke-width: 1.0;"/><!--MD5=[4d9597e94d51a4844e1b9fdd84c54cb9]
link Error to Closed--><path d="M448.14,501.7258 C448.14,530.0758 448.14,578.4558 448.14,620.0158 C448.14,620.0158 448.14,620.0158 448.14,815.5158 C448.14,844.2958 435.24,874.6558 423.74,896.0158 " fill="none" id="Error-&gt;Closed" style="stroke: #A80036; stroke-width: 1.0;"/><polygon fill="#A80036" points="421.31,900.4258,429.1394,894.4509,423.7103,896.0396,422.1215,890.6105,421.31,900.4258" style="stroke: #A80036; stroke-width: 1.0;"/><!--MD5=[60fe6059248d73373e8bd0db5bb50b79]
link Closed to *end--><path d="M406.14,950.7258 C406.14,968.3558 406.14,991.6458 406.14,1006.3558 " fill="none" id="Closed-&gt;*end" style="stroke: #A80036; stroke-width: 1.0;"/><polygon fill="#A80036" points="406.14,1011.3558,410.14,1002.3558,406.14,1006.3558,402.14,1002.3558,406.14,1011.3558" style="stroke: #A80036; stroke-width: 1.0;"/><!--MD5=[0897e070ebfb19f8aff7017b01a4409a]
@startuml
title Session State Machine

[*] - -> Idle
Idle - -> Pairing: pair-setup
Pairing - -> Verified: pair-verify ok
Pairing - -> Error: auth failed
Verified - -> Configured: SETUP ok
Configured - -> Streaming: RECORD or play
Streaming - -> Flushing: FLUSH
Flushing - -> Streaming: flush complete
Streaming - -> TearingDown: TEARDOWN
Configured - -> TearingDown: TEARDOWN
TearingDown - -> Closed
Error - -> Closed
Closed - -> [*]

@enduml

PlantUML version 1.2020.02(Sun Mar 01 18:22:07 CST 2020)
(GPL source distribution)
Java Runtime: OpenJDK Runtime Environment
JVM: OpenJDK 64-Bit Server VM
Java Version: 21.0.11+10-1-deb13u2-Debian
Operating System: Linux
Default Encoding: UTF-8
Language: en
Country: null
--></g></svg>