<?xml version="1.0" encoding="UTF-8" standalone="no"?><svg xmlns="http://www.w3.org/2000/svg" xmlns:xlink="http://www.w3.org/1999/xlink" contentScriptType="application/ecmascript" contentStyleType="text/css" height="744px" preserveAspectRatio="none" style="width:887px;height:744px;" version="1.1" viewBox="0 0 887 744" width="887px" zoomAndPan="magnify"><defs><filter height="300%" id="f1nyx0z8bkmj2m" width="300%" x="-1" y="-1"><feGaussianBlur result="blurOut" stdDeviation="2.0"/><feColorMatrix in="blurOut" result="blurOut2" type="matrix" values="0 0 0 0 0 0 0 0 0 0 0 0 0 0 0 0 0 0 .4 0"/><feOffset dx="4.0" dy="4.0" in="blurOut2" result="blurOut3"/><feBlend in="SourceGraphic" in2="blurOut3" mode="normal"/></filter></defs><g><text fill="#000000" font-family="sans-serif" font-size="18" lengthAdjust="spacingAndGlyphs" textLength="216" x="336" y="29.2419">AirPlay Session Sequence</text><line style="stroke: #A80036; stroke-width: 1.0; stroke-dasharray: 5.0,5.0;" x1="30" x2="30" y1="127.5838" y2="654.88"/><line style="stroke: #A80036; stroke-width: 1.0; stroke-dasharray: 5.0,5.0;" x1="191" x2="191" y1="127.5838" y2="654.88"/><line style="stroke: #A80036; stroke-width: 1.0; stroke-dasharray: 5.0,5.0;" x1="327.5" x2="327.5" y1="127.5838" y2="654.88"/><line style="stroke: #A80036; stroke-width: 1.0; stroke-dasharray: 5.0,5.0;" x1="480.5" x2="480.5" y1="127.5838" y2="654.88"/><line style="stroke: #A80036; stroke-width: 1.0; stroke-dasharray: 5.0,5.0;" x1="623.5" x2="623.5" y1="127.5838" y2="654.88"/><line style="stroke: #A80036; stroke-width: 1.0; stroke-dasharray: 5.0,5.0;" x1="804" x2="804" y1="127.5838" y2="654.88"/><text fill="#000000" font-family="sans-serif" font-size="14" lengthAdjust="spacingAndGlyphs" textLength="39" x="8" y="123.4818">Client</text><ellipse cx="30.5" cy="51.5158" fill="#FEFECE" filter="url(#f1nyx0z8bkmj2m)" rx="8" ry="8" style="stroke: #A80036; stroke-width: 2.0;"/><path d="M30.5,59.5158 L30.5,86.5158 M17.5,67.5158 L43.5,67.5158 M30.5,86.5158 L17.5,101.5158 M30.5,86.5158 L43.5,101.5158 " fill="none" filter="url(#f1nyx0z8bkmj2m)" style="stroke: #A80036; stroke-width: 2.0;"/><text fill="#000000" font-family="sans-serif" font-size="14" lengthAdjust="spacingAndGlyphs" textLength="39" x="8" y="668.846">Client</text><ellipse cx="30.5" cy="682.9479" fill="#FEFECE" filter="url(#f1nyx0z8bkmj2m)" rx="8" ry="8" style="stroke: #A80036; stroke-width: 2.0;"/><path d="M30.5,690.9479 L30.5,717.9479 M17.5,698.9479 L43.5,698.9479 M30.5,717.9479 L17.5,732.9479 M30.5,717.9479 L43.5,732.9479 " fill="none" filter="url(#f1nyx0z8bkmj2m)" style="stroke: #A80036; stroke-width: 2.0;"/><rect fill="#FEFECE" filter="url(#f1nyx0z8bkmj2m)" height="33.0679" style="stroke: #A80036; stroke-width: 1.5;" width="111" x="134" y="89.5158"/><text fill="#000000" font-family="sans-serif" font-size="14" lengthAdjust="spacingAndGlyphs" textLength="97" x="141" y="111.4818">ProtocolServer</text><rect fill="#FEFECE" filter="url(#f1nyx0z8bkmj2m)" height="33.0679" style="stroke: #A80036; stroke-width: 1.5;" width="111" x="134" y="653.88"/><text fill="#000000" font-family="sans-serif" font-size="14" lengthAdjust="spacingAndGlyphs" textLength="97" x="141" y="675.846">ProtocolServer</text><rect fill="#FEFECE" filter="url(#f1nyx0z8bkmj2m)" height="33.0679" style="stroke: #A80036; stroke-width: 1.5;" width="132" x="259.5" y="89.5158"/><text fill="#000000" font-family="sans-serif" font-size="14" lengthAdjust="spacingAndGlyphs" textLength="118" x="266.5" y="111.4818">SessionController</text><rect fill="#FEFECE" filter="url(#f1nyx0z8bkmj2m)" height="33.0679" style="stroke: #A80036; stroke-width: 1.5;" width="132" x="259.5" y="653.88"/><text fill="#000000" font-family="sans-serif" font-size="14" lengthAdjust="spacingAndGlyphs" textLength="118" x="266.5" y="675.846">SessionController</text><rect fill="#FEFECE" filter="url(#f1nyx0z8bkmj2m)" height="33.0679" style="stroke: #A80036; stroke-width: 1.5;" width="114" x="421.5" y="89.5158"/><text fill="#000000" font-family="sans-serif" font-size="14" lengthAdjust="spacingAndGlyphs" textLength="100" x="428.5" y="111.4818">CryptoProvider</text><rect fill="#FEFECE" filter="url(#f1nyx0z8bkmj2m)" height="33.0679" style="stroke: #A80036; stroke-width: 1.5;" width="114" x="421.5" y="653.88"/><text fill="#000000" font-family="sans-serif" font-size="14" lengthAdjust="spacingAndGlyphs" textLength="100" x="428.5" y="675.846">CryptoProvider</text><rect fill="#FEFECE" filter="url(#f1nyx0z8bkmj2m)" height="33.0679" style="stroke: #A80036; stroke-width: 1.5;" width="145" x="549.5" y="89.5158"/><text fill="#000000" font-family="sans-serif" font-size="14" lengthAdjust="spacingAndGlyphs" textLength="131" x="556.5" y="111.4818">StreamingManager</text><rect fill="#FEFECE" filter="url(#f1nyx0z8bkmj2m)" height="33.0679" style="stroke: #A80036; stroke-width: 1.5;" width="145" x="549.5" y="653.88"/><text fill="#000000" font-family="sans-serif" font-size="14" lengthAdjust="spacingAndGlyphs" textLength="131" x="556.5" y="675.846">StreamingManager</text><rect fill="#FEFECE" filter="url(#f1nyx0z8bkmj2m)" height="33.0679" style="stroke: #A80036; stroke-width: 1.5;" width="148" x="728" y="89.5158"/><text fill="#000000" font-family="sans-serif" font-size="14" lengthAdjust="spacingAndGlyphs" textLength="134" x="735" y="111.4818">OSAL Render/Codec</text><rect fill="#FEFECE" filter="url(#f1nyx0z8bkmj2m)" height="33.0679" style="stroke: #A80036; stroke-width: 1.5;" width="148" x="728" y="653.88"/><text fill="#000000" font-family="sans-serif" font-size="14" lengthAdjust="spacingAndGlyphs" textLength="134" x="735" y="675.846">OSAL Render/Codec</text><polygon fill="#A80036" points="179.5,157.2898,189.5,161.2898,179.5,165.2898,183.5,161.2898" style="stroke: #A80036; stroke-width: 1.0;"/><line style="stroke: #A80036; stroke-width: 1.0;" x1="30.5" x2="185.5" y1="161.2898" y2="161.2898"/><text fill="#000000" font-family="sans-serif" font-size="13" lengthAdjust="spacingAndGlyphs" textLength="137" x="37.5" y="155.4808">RTSP/HTTP connection</text><polygon fill="#A80036" points="315.5,188.9958,325.5,192.9958,315.5,196.9958,319.5,192.9958" style="stroke: #A80036; stroke-width: 1.0;"/><line style="stroke: #A80036; stroke-width: 1.0;" x1="191.5" x2="321.5" y1="192.9958" y2="192.9958"/><text fill="#000000" font-family="sans-serif" font-size="13" lengthAdjust="spacingAndGlyphs" textLength="112" x="198.5" y="187.1868">classify connection</text><polygon fill="#A80036" points="179.5,220.7018,189.5,224.7018,179.5,228.7018,183.5,224.7018" style="stroke: #A80036; stroke-width: 1.0;"/><line style="stroke: #A80036; stroke-width: 1.0;" x1="30.5" x2="185.5" y1="224.7018" y2="224.7018"/><text fill="#000000" font-family="sans-serif" font-size="13" lengthAdjust="spacingAndGlyphs" textLength="132" x="37.5" y="218.8928">pair-setup / pair-verify</text><polygon fill="#A80036" points="315.5,252.4078,325.5,256.4078,315.5,260.4078,319.5,256.4078" style="stroke: #A80036; stroke-width: 1.0;"/><line style="stroke: #A80036; stroke-width: 1.0;" x1="191.5" x2="321.5" y1="256.4078" y2="256.4078"/><text fill="#000000" font-family="sans-serif" font-size="13" lengthAdjust="spacingAndGlyphs" textLength="91" x="198.5" y="250.5988">pairing request</text><polygon fill="#A80036" points="468.5,284.1138,478.5,288.1138,468.5,292.1138,472.5,288.1138" style="stroke: #A80036; stroke-width: 1.0;"/><line style="stroke: #A80036; stroke-width: 1.0;" x1="327.5" x2="474.5" y1="288.1138" y2="288.1138"/><text fill="#000000" font-family="sans-serif" font-size="13" lengthAdjust="spacingAndGlyphs" textLength="129" x="334.5" y="282.3048">derive and verify keys</text><polygon fill="#A80036" points="338.5,315.8199,328.5,319.8199,338.5,323.8199,334.5,319.8199" style="stroke: #A80036; stroke-width: 1.0;"/><line style="stroke: #A80036; stroke-width: 1.0; stroke-dasharray: 2.0,2.0;" x1="332.5" x2="479.5" y1="319.8199" y2="319.8199"/><text fill="#000000" font-family="sans-serif" font-size="13" lengthAdjust="spacingAndGlyphs" textLength="74" x="344.5" y="314.0109">session keys</text><polygon fill="#A80036" points="179.5,347.5259,189.5,351.5259,179.5,355.5259,183.5,351.5259" style="stroke: #A80036; stroke-width: 1.0;"/><line style="stroke: #A80036; stroke-width: 1.0;" x1="30.5" x2="185.5" y1="351.5259" y2="351.5259"/><text fill="#000000" font-family="sans-serif" font-size="13" lengthAdjust="spacingAndGlyphs" textLength="50" x="37.5" y="345.7169">fp-setup</text><polygon fill="#A80036" points="468.5,379.2319,478.5,383.2319,468.5,387.2319,472.5,383.2319" style="stroke: #A80036; stroke-width: 1.0;"/><line style="stroke: #A80036; stroke-width: 1.0;" x1="327.5" x2="474.5" y1="383.2319" y2="383.2319"/><text fill="#000000" font-family="sans-serif" font-size="13" lengthAdjust="spacingAndGlyphs" textLength="84" x="334.5" y="377.4229">FairPlay setup</text><polygon fill="#A80036" points="179.5,410.9379,189.5,414.9379,179.5,418.9379,183.5,414.9379" style="stroke: #A80036; stroke-width: 1.0;"/><line style="stroke: #A80036; stroke-width: 1.0;" x1="30.5" x2="185.5" y1="414.9379" y2="414.9379"/><text fill="#000000" font-family="sans-serif" font-size="13" lengthAdjust="spacingAndGlyphs" textLength="100" x="37.5" y="409.1289">SETUP / RECORD</text><polygon fill="#A80036" points="612,442.6439,622,446.6439,612,450.6439,616,446.6439" style="stroke: #A80036; stroke-width: 1.0;"/><line style="stroke: #A80036; stroke-width: 1.0;" x1="327.5" x2="618" y1="446.6439" y2="446.6439"/><text fill="#000000" font-family="sans-serif" font-size="13" lengthAdjust="spacingAndGlyphs" textLength="207" x="334.5" y="440.8349">create audio/video/timing streams</text><polygon fill="#A80036" points="792,474.3499,802,478.3499,792,482.3499,796,478.3499" style="stroke: #A80036; stroke-width: 1.0;"/><line style="stroke: #A80036; stroke-width: 1.0;" x1="624" x2="798" y1="478.3499" y2="478.3499"/><text fill="#000000" font-family="sans-serif" font-size="13" lengthAdjust="spacingAndGlyphs" textLength="28" x="631" y="472.5409">start</text><polygon fill="#A80036" points="612,506.056,622,510.056,612,514.056,616,510.056" style="stroke: #A80036; stroke-width: 1.0;"/><line style="stroke: #A80036; stroke-width: 1.0;" x1="30.5" x2="618" y1="510.056" y2="510.056"/><text fill="#000000" font-family="sans-serif" font-size="13" lengthAdjust="spacingAndGlyphs" textLength="121" x="37.5" y="504.247">RTP / mirror packets</text><polygon fill="#A80036" points="792,537.762,802,541.762,792,545.762,796,541.762" style="stroke: #A80036; stroke-width: 1.0;"/><line style="stroke: #A80036; stroke-width: 1.0;" x1="624" x2="798" y1="541.762" y2="541.762"/><text fill="#000000" font-family="sans-serif" font-size="13" lengthAdjust="spacingAndGlyphs" textLength="156" x="631" y="535.953">AudioFrame / VideoFrame</text><polygon fill="#A80036" points="179.5,569.468,189.5,573.468,179.5,577.468,183.5,573.468" style="stroke: #A80036; stroke-width: 1.0;"/><line style="stroke: #A80036; stroke-width: 1.0;" x1="30.5" x2="185.5" y1="573.468" y2="573.468"/><text fill="#000000" font-family="sans-serif" font-size="13" lengthAdjust="spacingAndGlyphs" textLength="123" x="37.5" y="567.659">FLUSH / TEARDOWN</text><polygon fill="#A80036" points="612,601.174,622,605.174,612,609.174,616,605.174" style="stroke: #A80036; stroke-width: 1.0;"/><line style="stroke: #A80036; stroke-width: 1.0;" x1="327.5" x2="618" y1="605.174" y2="605.174"/><text fill="#000000" font-family="sans-serif" font-size="13" lengthAdjust="spacingAndGlyphs" textLength="75" x="334.5" y="599.365">flush or stop</text><polygon fill="#A80036" points="792,632.88,802,636.88,792,640.88,796,636.88" style="stroke: #A80036; stroke-width: 1.0;"/><line style="stroke: #A80036; stroke-width: 1.0;" x1="624" x2="798" y1="636.88" y2="636.88"/><text fill="#000000" font-family="sans-serif" font-size="13" lengthAdjust="spacingAndGlyphs" textLength="75" x="631" y="631.071">flush or stop</text><!--MD5=[460cdbacc48f6942e896e56f73c0d04a]
@startuml
title AirPlay Session Sequence

actor Client
participant "ProtocolServer" as Protocol
participant "SessionController" as Session
participant "CryptoProvider" as Crypto
participant "StreamingManager" as Streaming
participant "OSAL Render/Codec" as OsalRender

Client -> Protocol: RTSP/HTTP connection
Protocol -> Session: classify connection
Client -> Protocol: pair-setup / pair-verify
Protocol -> Session: pairing request
Session -> Crypto: derive and verify keys
Crypto - -> Session: session keys
Client -> Protocol: fp-setup
Session -> Crypto: FairPlay setup
Client -> Protocol: SETUP / RECORD
Session -> Streaming: create audio/video/timing streams
Streaming -> OsalRender: start
Client -> Streaming: RTP / mirror packets
Streaming -> OsalRender: AudioFrame / VideoFrame
Client -> Protocol: FLUSH / TEARDOWN
Session -> Streaming: flush or stop
Streaming -> OsalRender: flush or stop

@enduml

PlantUML version 1.2020.02(Sun Mar 01 18:22:07 CST 2020)
(GPL source distribution)
Java Runtime: OpenJDK Runtime Environment
JVM: OpenJDK 64-Bit Server VM
Java Version: 21.0.11+10-1-deb13u2-Debian
Operating System: Linux
Default Encoding: UTF-8
Language: en
Country: null
--></g></svg>